<svg xmlns="http://www.w3.org/2000/svg" viewBox="0 0 128 128">
  <linearGradient id="a" gradientUnits="userSpaceOnUse" x1="70.252" y1="1237.476" x2="170.659" y2="1151.089" gradientTransform="matrix(.563 0 0 -.568 -19.376 707.817)">
    <stop offset="0" stop-color="#5A9FD4"></stop>
    <stop offset="1" stop-color="#306998"></stop>
  </linearGradient>
  <path fill="url(#a)" d="M63.391 0c-5.47.024-10.688.492-15.531 1.312-13.742 2.293-16.239 7.106-16.239 15.984v11.688h32v3.906H26.108c-8.899 0-16.702 5.325-19.14 15.449-2.82 11.704-2.954 19.025 0 31.25 2.177 9.065 7.386 15.347 16.285 15.347h10.544v-14.031c0-9.129 7.911-17.156 17.992-17.156h31.969c7.999 0 15.624-6.512 15.624-14.531V17.296c0-7.757-6.562-13.566-15.624-15.547C77.081.445 68.861-.04 63.391 0zM46.74 9.469c2.968 0 5.406 2.492 5.406 5.563 0 3.054-2.438 5.531-5.406 5.531-2.985 0-5.406-2.477-5.406-5.531 0-3.071 2.421-5.563 5.406-5.563z"></path>
  <linearGradient id="b" gradientUnits="userSpaceOnUse" x1="209.474" y1="1098.811" x2="173.62" y2="1149.537" gradientTransform="matrix(.563 0 0 -.568 -19.376 707.817)">
    <stop offset="0" stop-color="#FFD43B"></stop>
    <stop offset="1" stop-color="#FFE873"></stop>
  </linearGradient>
  <path fill="url(#b)" d="M92.881 32v13.719c0 9.488-8.054 17.438-17.992 17.438H42.92c-7.922 0-15.625 6.726-15.625 14.531v28.406c0 7.758 6.854 12.324 15.625 14.531 9.918 2.913 19.441 3.438 31.969 0 7.938-2.3 15.624-6.93 15.624-14.531v-11.688H58.421v-3.906h32.004c8.899 0 12.221-6.205 15.624-15.347 3.261-8.967 3.121-17.58 0-31.25C104.671 37.529 100.446 32 92.881 32zM80.26 105.25c2.985 0 5.406 2.478 5.406 5.531 0 3.07-2.421 5.563-5.406 5.563-2.969 0-5.406-2.493-5.406-5.563 0-3.053 2.437-5.531 5.406-5.531z"></path>
</svg>
